HIERARCHY
ROOT Hips
{
	OFFSET 0.000000 0.000000 0.000000
	CHANNELS 6 Xposition Yposition Zposition Zrotation Xrotation Yrotation
	JOINT LeftHipJoint
	{
		OFFSET 0.100000 0.000000 0.000000
		CHANNELS 6 Xposition Yposition Zposition Zrotation Xrotation Yrotation
		JOINT LeftUpLeg
		{
			OFFSET 0.107972 0.000000 0.000000
			CHANNELS 6 Xposition Yposition Zposition Zrotation Xrotation Yrotation
			JOINT LeftLeg
			{
				OFFSET 0.000000 0.000000 -0.351231
				CHANNELS 6 Xposition Yposition Zposition Zrotation Xrotation Yrotation
				JOINT LeftFoot
				{
					OFFSET 0.000000 0.000000 -0.469094
					CHANNELS 6 Xposition Yposition Zposition Zrotation Xrotation Yrotation
					End Site
					{
						OFFSET 0.000000 -0.100000 0.000000
					}
				}
			}
		}
	}
	JOINT LowerBack
	{
		OFFSET 0.000000 0.000000 0.100000
		CHANNELS 6 Xposition Yposition Zposition Zrotation Xrotation Yrotation
		JOINT Spine
		{
			OFFSET 0.000000 0.000000 0.194444
			CHANNELS 6 Xposition Yposition Zposition Zrotation Xrotation Yrotation
			JOINT Spine1
			{
				OFFSET 0.000000 0.000000 0.227222
				CHANNELS 6 Xposition Yposition Zposition Zrotation Xrotation Yrotation
				JOINT LeftShoulder
				{
					OFFSET 0.100000 0.000000 0.000000
					CHANNELS 6 Xposition Yposition Zposition Zrotation Xrotation Yrotation
					JOINT LeftArm
					{
						OFFSET 0.123584 0.000000 0.000000
						CHANNELS 6 Xposition Yposition Zposition Zrotation Xrotation Yrotation
						JOINT LeftForeArm
						{
							OFFSET 0.229562 0.000000 0.000000
							CHANNELS 6 Xposition Yposition Zposition Zrotation Xrotation Yrotation
							JOINT LeftHand
							{
								OFFSET 0.160834 0.000000 0.000000
								CHANNELS 6 Xposition Yposition Zposition Zrotation Xrotation Yrotation
								End Site
								{
									OFFSET 0.100000 0.000000 0.000000
								}
							}
						}
					}
				}
				JOINT Neck
				{
					OFFSET 0.000000 0.000000 0.100000
					CHANNELS 6 Xposition Yposition Zposition Zrotation Xrotation Yrotation
					JOINT Neck1
					{
						OFFSET 0.000000 0.000000 0.161555
						CHANNELS 6 Xposition Yposition Zposition Zrotation Xrotation Yrotation
						End Site
						{
							OFFSET 0.000000 0.000000 0.081267
						}
					}
				}
				JOINT RightShoulder
				{
					OFFSET -0.100000 0.000000 0.000000
					CHANNELS 6 Xposition Yposition Zposition Zrotation Xrotation Yrotation
					JOINT RightArm
					{
						OFFSET -0.123584 0.000000 0.000000
						CHANNELS 6 Xposition Yposition Zposition Zrotation Xrotation Yrotation
						JOINT RightForeArm
						{
							OFFSET -0.229562 0.000000 0.000000
							CHANNELS 6 Xposition Yposition Zposition Zrotation Xrotation Yrotation
							JOINT RightHand
							{
								OFFSET -0.160834 0.000000 0.000000
								CHANNELS 6 Xposition Yposition Zposition Zrotation Xrotation Yrotation
								End Site
								{
									OFFSET -0.100000 0.000000 0.000000
								}
							}
						}
					}
				}
			}
		}
	}
	JOINT RightHipJoint
	{
		OFFSET -0.100000 0.000000 0.000000
		CHANNELS 6 Xposition Yposition Zposition Zrotation Xrotation Yrotation
		JOINT RightUpLeg
		{
			OFFSET -0.107972 0.000000 0.000000
			CHANNELS 6 Xposition Yposition Zposition Zrotation Xrotation Yrotation
			JOINT RightLeg
			{
				OFFSET 0.000000 0.000000 -0.351231
				CHANNELS 6 Xposition Yposition Zposition Zrotation Xrotation Yrotation
				JOINT RightFoot
				{
					OFFSET 0.000000 0.000000 -0.469094
					CHANNELS 6 Xposition Yposition Zposition Zrotation Xrotation Yrotation
					End Site
					{
						OFFSET 0.000000 -0.100000 0.000000
					}
				}
			}
		}
	}
}
MOTION
Frames: 7
Frame Time: 0.041667
0.000000 0.000000 0.000000 -0.000003 9.757345 -2.054445 0.100000 -0.000000 0.000000 -0.000000 0.000001 0.000000 0.107972 0.000000 0.000000 48.033585 -80.979317 44.212719 0.000000 -0.000000 -0.351231 2.738285 112.241974 14.294364 0.000000 -0.000000 -0.469094 -0.000000 -0.000001 0.000004 0.000000 -0.000000 0.100000 -0.000000 0.000001 -0.000000 0.000000 -0.000000 0.194444 -0.015291 0.426249 -32.024103 0.000000 0.000000 0.227222 17.027701 -0.000001 -0.000001 0.100000 0.000000 -0.000000 -0.000000 0.000000 0.000000 0.123584 -0.000000 -0.000000 29.700685 -61.001519 59.701092 0.229562 -0.000000 0.000000 -29.931962 0.000000 -0.000002 0.160834 0.000000 -0.000000 -0.000003 0.000003 0.000002 0.000000 0.000000 0.100000 -0.000000 0.000000 -0.000001 0.000000 0.000000 0.161555 18.840527 64.915682 -6.462279 -0.100000 -0.000000 0.000000 -0.000000 0.000000 0.000000 -0.123584 0.000000 -0.000000 62.324513 -12.594640 25.235140 -0.229562 -0.000000 0.000000 28.535040 0.000005 -0.000000 -0.160834 -0.000000 -0.000000 0.000000 -0.000000 -0.000000 -0.100000 0.000000 -0.000000 -0.000000 0.000001 0.000000 -0.107972 0.000000 -0.000000 -6.956213 -53.304395 -1.484645 -0.000000 -0.000000 -0.351231 27.883926 83.517709 -8.526877 -0.000000 -0.000000 -0.469094 0.000000 0.000001 0.000001 
0.000000 0.000000 0.000000 0.000001 9.837091 -1.998046 0.100000 0.000000 -0.000000 0.000000 -0.000000 0.000000 0.107972 0.000000 -0.000000 48.202233 -81.088019 44.355180 0.000000 0.000000 -0.351231 2.745170 112.299853 14.313053 0.000000 0.000000 -0.469094 0.000000 0.000001 -0.000002 0.000000 0.000000 0.100000 -0.000000 0.000000 0.000000 0.000000 0.000000 0.194444 -0.017599 0.504430 -31.984359 0.000000 -0.000000 0.227222 17.012908 0.000001 -0.000003 0.100000 -0.000000 -0.000000 0.000000 0.000000 0.000001 0.123584 -0.000000 -0.000000 29.136883 -60.938333 59.092194 0.229562 0.000000 -0.000000 -29.772764 0.000001 0.000003 0.160834 -0.000000 0.000000 -0.000000 -0.000000 -0.000000 0.000000 -0.000000 0.100000 -0.000000 0.000000 -0.000001 0.000000 0.000000 0.161555 19.105429 64.688906 -6.654130 -0.100000 -0.000000 0.000000 0.000000 0.000000 0.000001 -0.123584 -0.000000 -0.000000 62.290430 -12.323366 25.287107 -0.229562 0.000000 0.000000 28.738909 -0.000006 0.000002 -0.160834 -0.000000 0.000000 -0.000000 0.000001 0.000001 -0.100000 -0.000000 0.000000 0.000000 -0.000000 0.000000 -0.107972 0.000000 -0.000000 -7.015434 -53.138991 -1.375844 -0.000000 -0.000000 -0.351231 27.892097 83.145874 -8.577140 0.000000 0.000000 -0.469094 0.000000 0.000002 0.000002 
0.000000 0.000000 0.000000 -0.000001 9.919209 -1.944195 0.100000 -0.000000 -0.000000 0.000000 -0.000000 0.000000 0.107972 0.000000 -0.000000 48.399205 -81.193225 44.528172 0.000000 0.000000 -0.351231 2.741167 112.359720 14.339011 -0.000000 0.000000 -0.469094 0.000000 0.000001 0.000001 0.000000 -0.000000 0.100000 0.000000 -0.000000 0.000000 0.000000 -0.000000 0.194444 -0.019933 0.587199 -31.939505 0.000000 -0.000000 0.227222 16.992443 0.000002 -0.000002 0.100000 -0.000000 -0.000000 -0.000000 0.000000 0.000003 0.123584 0.000000 -0.000000 28.575123 -60.862252 58.476719 0.229562 -0.000000 0.000000 -29.621376 -0.000003 -0.000002 0.160834 0.000000 0.000000 0.000003 0.000000 -0.000000 -0.000000 -0.000000 0.100000 0.000001 0.000000 0.000004 -0.000000 0.000000 0.161555 19.363837 64.442104 -6.836034 -0.100000 -0.000000 0.000000 -0.000000 0.000000 0.000003 -0.123584 0.000000 -0.000000 62.260200 -12.052155 25.343250 -0.229562 -0.000000 -0.000000 28.951000 0.000001 -0.000004 -0.160834 -0.000000 0.000000 -0.000001 -0.000003 0.000001 -0.100000 0.000000 0.000000 0.000000 -0.000000 0.000000 -0.107972 0.000000 0.000000 -7.073785 -52.957114 -1.249638 0.000000 0.000000 -0.351231 27.910055 82.746294 -8.640725 -0.000000 -0.000000 -0.469094 0.000000 -0.000001 0.000001 
0.000000 0.000000 0.000000 -0.000000 10.016126 -1.888082 0.100000 -0.000000 0.000000 -0.000000 -0.000000 0.000000 0.107972 -0.000000 0.000000 48.693105 -81.297829 44.800187 0.000000 -0.000000 -0.351231 2.765688 112.412858 14.326984 0.000000 0.000000 -0.469094 -0.000000 0.000002 -0.000000 -0.000000 -0.000000 0.100000 -0.000000 -0.000000 -0.000000 0.000000 0.000000 0.194444 -0.022164 0.672289 -31.893579 -0.000000 -0.000000 0.227222 16.966400 0.000001 0.000000 0.100000 0.000000 0.000000 -0.000000 -0.000000 -0.000000 0.123584 -0.000000 -0.000000 27.980973 -60.766841 57.818453 0.229562 -0.000000 -0.000000 -29.471587 0.000005 0.000002 0.160834 0.000000 -0.000000 -0.000001 0.000001 0.000002 0.000000 -0.000000 0.100000 -0.000001 -0.000000 -0.000001 0.000000 0.000000 0.161555 19.629095 64.170932 -7.017848 -0.100000 0.000000 0.000000 -0.000000 -0.000000 -0.000000 -0.123584 -0.000000 0.000000 62.235830 -11.776401 25.410010 -0.229562 -0.000000 0.000000 29.175215 -0.000000 0.000002 -0.160834 -0.000000 -0.000000 -0.000000 -0.000001 -0.000001 -0.100000 0.000000 -0.000000 -0.000000 -0.000000 0.000000 -0.107972 0.000000 -0.000000 -7.138952 -52.758147 -1.109736 -0.000000 0.000000 -0.351231 28.075609 82.297701 -8.858309 0.000000 -0.000000 -0.469094 0.000000 0.000000 -0.000001 
0.000000 0.000000 0.000000 0.000003 10.112490 -1.838487 0.100000 0.000000 0.000000 0.000000 -0.000001 0.000000 0.107972 0.000000 -0.000000 49.013212 -81.387878 45.102802 0.000000 0.000000 -0.351231 2.750076 112.469795 14.346987 0.000000 -0.000000 -0.469094 -0.000001 0.000001 -0.000001 -0.000000 0.000000 0.100000 0.000000 -0.000001 -0.000000 0.000000 -0.000000 0.194444 -0.024651 0.767922 -31.842813 0.000000 0.000000 0.227222 16.935792 -0.000001 -0.000004 0.100000 0.000000 0.000000 0.000000 -0.000001 0.000003 0.123584 0.000000 -0.000000 27.368235 -60.647504 57.134321 0.229562 0.000000 0.000000 -29.328450 0.000000 -0.000000 0.160834 0.000000 0.000000 0.000001 0.000000 -0.000000 0.000000 0.000000 0.100000 -0.000000 -0.000001 0.000001 0.000000 0.000000 0.161555 19.874800 63.871476 -7.176428 -0.100000 -0.000000 0.000000 0.000000 -0.000001 0.000003 -0.123584 -0.000000 0.000000 62.213236 -11.496698 25.483665 -0.229562 0.000000 0.000000 29.412386 -0.000005 0.000003 -0.160834 0.000000 -0.000000 -0.000001 -0.000001 0.000001 -0.100000 -0.000000 -0.000000 0.000000 -0.000001 0.000000 -0.107972 0.000000 0.000000 -7.207166 -52.522270 -0.940198 -0.000000 0.000000 -0.351231 28.195574 81.801296 -9.031953 0.000000 -0.000000 -0.469094 0.000000 -0.000002 -0.000002 
0.000000 0.000000 0.000000 -0.000000 10.216786 -1.790045 0.100000 -0.000000 0.000000 0.000000 0.000001 -0.000000 0.107972 -0.000000 0.000000 49.347031 -81.475216 45.421660 0.000000 0.000000 -0.351231 2.728449 112.525563 14.370385 0.000000 0.000000 -0.469094 -0.000000 -0.000002 -0.000000 -0.000000 -0.000000 0.100000 0.000000 0.000001 -0.000000 0.000000 -0.000000 0.194444 -0.027191 0.869977 -31.793240 0.000000 0.000000 0.227222 16.903091 0.000001 0.000002 0.100000 0.000000 -0.000000 -0.000001 -0.000000 0.000002 0.123584 0.000000 -0.000000 26.736248 -60.504678 56.425292 0.229562 -0.000000 0.000000 -29.196627 -0.000003 -0.000003 0.160834 -0.000000 -0.000000 0.000001 -0.000002 0.000001 0.000000 0.000000 0.100000 -0.000000 -0.000000 0.000002 -0.000000 0.000000 0.161555 20.093308 63.545915 -7.305141 -0.100000 0.000000 0.000000 -0.000001 -0.000000 0.000002 -0.123584 -0.000000 -0.000000 62.191393 -11.210392 25.564145 -0.229562 0.000000 -0.000000 29.664393 -0.000001 0.000004 -0.160834 -0.000000 0.000000 -0.000000 -0.000003 0.000001 -0.100000 0.000000 -0.000000 0.000000 0.000001 -0.000000 -0.107972 0.000000 -0.000000 -7.270842 -52.255732 -0.737994 -0.000000 -0.000000 -0.351231 28.315604 81.249273 -9.218773 -0.000000 0.000000 -0.469094 -0.000001 -0.000001 -0.000000 
0.000000 0.000000 0.000000 0.000002 10.323306 -1.745469 0.100000 -0.000000 0.000000 0.000000 0.000000 -0.000000 0.107972 -0.000000 -0.000000 49.621727 -81.558135 45.684557 0.000000 -0.000000 -0.351231 2.677839 112.582657 14.426586 0.000000 0.000000 -0.469094 -0.000001 0.000001 0.000002 -0.000000 0.000000 0.100000 0.000000 -0.000001 -0.000000 0.000000 -0.000000 0.194444 -0.029886 0.980613 -31.743256 -0.000000 -0.000000 0.227222 16.870629 0.000001 0.000001 0.100000 0.000000 -0.000000 0.000000 0.000000 0.000002 0.123584 0.000000 -0.000000 26.109701 -60.336587 55.719604 0.229562 -0.000000 0.000000 -29.091883 0.000003 0.000000 0.160834 -0.000000 0.000000 0.000002 -0.000000 -0.000001 0.000000 0.000000 0.100000 -0.000000 0.000000 0.000003 0.000000 0.000000 0.161555 20.270180 63.190479 -7.392980 -0.100000 0.000000 0.000000 0.000000 0.000000 0.000002 -0.123584 -0.000000 0.000000 62.170868 -10.934806 25.644662 -0.229562 -0.000000 -0.000000 29.931480 -0.000001 -0.000000 -0.160834 -0.000000 -0.000000 0.000001 0.000000 -0.000001 -0.100000 0.000000 -0.000000 0.000000 0.000000 -0.000000 -0.107972 0.000000 0.000000 -7.320584 -51.950347 -0.487271 -0.000000 0.000000 -0.351231 28.381005 80.641803 -9.371129 -0.000000 -0.000000 -0.469094 -0.000000 -0.000001 0.000000 
